<svg xmlns="http://www.w3.org/2000/svg" xmlns:xlink="http://www.w3.org/1999/xlink" width="1920" height="294" viewBox="0 0 1920 294"><defs><style>.a{fill:#1894f8;}.b{clip-path:url(#a);}.c,.d,.e,.f,.g{fill:none;stroke:#fff;stroke-miterlimit:10;}.c,.d{stroke-linecap:round;}.d,.g{opacity:0.3;}.e{stroke-width:2px;opacity:0.5;}.f,.g{stroke-width:1.241px;}.f{opacity:0.15;}</style><clipPath id="a"><rect class="a" width="1920" height="294" transform="translate(31 6984)"/></clipPath></defs><g class="b" transform="translate(-31 -6984)"><g transform="translate(-972 4014.879)"><g transform="translate(1082 2655)"><line class="c" x1="106.998" y2="106.998" transform="translate(528.913 84.522)"/><line class="d" x1="57.22" y2="57.22" transform="translate(762.155 268.611)"/><line class="d" x1="35.703" y2="35.703" transform="translate(753.209 521.784)"/><line class="d" x1="149.68" y2="148.775" transform="translate(1310.5 171.846)"/><line class="c" x1="53.764" y2="53.764" transform="translate(290.849 572.972)"/><line class="c" x1="106.998" y2="106.998" transform="translate(320.107 0)"/><line class="c" x1="106.998" y2="106.998" transform="translate(0 190.227)"/><line class="c" x1="106.998" y2="106.998" transform="translate(88.655 642.049)"/><line class="c" x1="106.998" y2="106.998" transform="translate(1004.846 227.235)"/><line class="c" x1="106.998" y2="106.998" transform="translate(1616 53.235)"/><line class="c" x1="106.998" y2="106.998" transform="translate(1142.005 642.049)"/><line class="c" x1="106.998" y2="106.998" transform="translate(1655.005 514.049)"/><line class="c" x1="106.998" y2="106.998" transform="translate(1048.002 60.42)"/><line class="c" x1="106.998" y2="106.998" transform="translate(1407.002 391.42)"/><line class="c" x1="106.998" y2="106.998" transform="translate(401.077 592.694)"/><circle class="e" cx="29.603" cy="29.603" r="29.603" transform="translate(315 372.188)"/><circle class="e" cx="29.603" cy="29.603" r="29.603" transform="translate(1355.853 616.188)"/><circle class="e" cx="29.603" cy="29.603" r="29.603" transform="translate(1375.793 42.188)"/><path class="e" d="M565.5,431.689a9.1,9.1,0,1,1-9.1-9.1A9.1,9.1,0,0,1,565.5,431.689Z" transform="translate(106.164 257.966)"/><path class="e" d="M565.5,431.689a9.1,9.1,0,1,1-9.1-9.1A9.1,9.1,0,0,1,565.5,431.689Z" transform="translate(1098.164 276.966)"/><path class="e" d="M565.5,431.689a9.1,9.1,0,1,1-9.1-9.1A9.1,9.1,0,0,1,565.5,431.689Z" transform="translate(1116.164 -151.034)"/><circle class="e" cx="9.103" cy="9.103" r="9.103" transform="translate(1014.302 470.969)"/><path class="f" d="M692.085,220.587a5.648,5.648,0,1,1-5.649-5.649A5.647,5.647,0,0,1,692.085,220.587Z" transform="translate(207.877 99.759)"/><path class="g" d="M570.668,318.311a5.648,5.648,0,1,1-5.649-5.649A5.649,5.649,0,0,1,570.668,318.311Z" transform="translate(115.369 174.215)"/><circle class="e" cx="9.103" cy="9.103" r="9.103" transform="translate(123.952 462.095)"/><path class="e" d="M434.435,123.765a9.1,9.1,0,1,1-9.1-9.1A9.1,9.1,0,0,1,434.435,123.765Z" transform="translate(6.307 23.359)"/></g></g></g></svg>